<svg width="70" height="70" viewBox="0 0 70 70" fill="none" xmlns="http://www.w3.org/2000/svg">
<g clip-path="url(#clip0_24_121)">
<mask id="mask0_24_121" style="mask-type:luminance" maskUnits="userSpaceOnUse" x="0" y="0" width="70" height="70">
<path d="M0 0H70V70H0V0Z" fill="white"/>
</mask>
<g mask="url(#mask0_24_121)">
<path d="M32.7075 0.0178646C32.5558 0.0324479 32.0775 0.0820312 31.6458 0.114115C21.7058 1.01245 12.3958 6.3762 6.4925 14.6216C3.23254 19.1475 1.11335 24.3934 0.315 29.9137C0.035 31.8387 0 32.4045 0 35.012C0 37.6195 0.035 38.1883 0.315 40.1104C2.21667 53.2558 11.5733 64.2983 24.2579 68.3904C26.53 69.1224 28.9246 69.6212 31.6458 69.9245C32.7075 70.0412 37.2925 70.0412 38.3542 69.9245C43.0529 69.4025 47.0371 68.2387 50.9629 66.2349C51.5667 65.9287 51.6833 65.8441 51.6017 65.777C49.6813 63.2445 47.7806 60.6972 45.8996 58.1354L40.3025 50.5724L33.2908 40.192C30.9578 36.7201 28.6031 33.2628 26.2267 29.8204C26.2004 29.8116 26.1742 34.4229 26.1596 40.0579C26.1392 49.9162 26.1304 50.3129 26.0079 50.5462C25.8884 50.8185 25.6753 51.0389 25.4071 51.1674C25.1883 51.2783 24.9987 51.2987 23.9633 51.2987H22.7792L22.4642 51.1004C22.2692 50.9773 22.1111 50.804 22.0063 50.5987L21.8604 50.2924L21.875 36.5724L21.8954 22.8466L22.1083 22.5783C22.2517 22.4105 22.4235 22.2693 22.6158 22.1612C22.8958 22.0241 23.0037 22.0124 24.1908 22.0124C25.585 22.0124 25.8183 22.0649 26.18 22.4616C26.2821 22.5724 30.0796 28.2949 34.6238 35.1841L48.4313 56.1024L53.9729 64.4966L54.2558 64.3129C56.9228 62.5398 59.3408 60.4181 61.4454 58.0041C65.8559 52.9562 68.7168 46.7433 69.685 40.1104C69.965 38.1854 70 37.6195 70 35.012C70 32.4045 69.965 31.8387 69.685 29.9137C67.7833 16.7712 58.4267 5.72578 45.7421 1.6337C43.3714 0.879942 40.9302 0.368848 38.4563 0.108281C37.7971 0.0382812 33.2763 -0.0375521 32.7104 0.0207812L32.7075 0.0178646ZM47.0371 21.1929C47.1997 21.2748 47.3446 21.3881 47.4632 21.5262C47.5818 21.6644 47.672 21.8247 47.7283 21.9979C47.7808 22.1729 47.7954 25.9791 47.7808 34.5541L47.7604 46.8566L45.5933 43.5316L43.4175 40.2066V31.2641C43.4175 25.4804 43.4438 22.2312 43.4846 22.0737C43.5331 21.8915 43.6181 21.7211 43.7344 21.5727C43.8507 21.4243 43.9959 21.301 44.1613 21.2104C44.4442 21.0645 44.5462 21.0529 45.6196 21.0529C46.6317 21.0529 46.8096 21.0704 47.0371 21.1929Z" fill="black"/>
</g>
</g>
<defs>
<clipPath id="clip0_24_121">
<rect width="70" height="70" fill="white"/>
</clipPath>
</defs>
</svg>
