<svg width="71" height="70" viewBox="0 0 71 70" fill="none" xmlns="http://www.w3.org/2000/svg">
<g clip-path="url(#clip0_24_80)">
<path d="M68.8822 31.9255L38.7406 1.78499C37.0059 0.049209 34.1906 0.049209 32.4532 1.78499L26.1948 8.04452L34.1343 15.9841C35.98 15.3612 38.0953 15.779 39.5659 17.2495C41.0441 18.7294 41.4586 20.8627 40.8204 22.7144L48.4723 30.3669C50.3234 29.7287 52.4601 30.141 53.9377 31.6219C56.0049 33.6875 56.0049 37.036 53.9377 39.1026C53.4465 39.5941 52.8632 39.984 52.2212 40.25C51.5793 40.516 50.8912 40.6529 50.1963 40.6529C49.5014 40.6529 48.8133 40.516 48.1713 40.25C47.5294 39.984 46.9461 39.5941 46.4548 39.1026C45.7168 38.3641 45.2137 37.4238 45.0088 36.4C44.804 35.3761 44.9066 34.3146 45.3037 33.349L38.168 26.2133L38.1669 44.9936C38.6847 45.2485 39.1573 45.5862 39.5664 45.9933C41.6325 48.0588 41.6325 51.4062 39.5664 53.4762C37.4998 55.5417 34.1502 55.5417 32.0857 53.4762C30.0196 51.4068 30.0196 48.0594 32.0857 45.9933C32.5807 45.4975 33.1695 45.1052 33.8176 44.8394V25.8852C33.1689 25.6201 32.58 25.2275 32.0857 24.7308C30.5205 23.1667 30.1437 20.8698 30.9466 18.947L23.1191 11.1196L2.45163 31.786C1.61782 32.6201 1.14941 33.7512 1.14941 34.9305C1.14941 36.1099 1.61782 37.241 2.45163 38.0751L32.5937 68.2155C34.3295 69.9513 37.1437 69.9513 38.8823 68.2155L68.8827 38.2151C69.7164 37.3808 70.1846 36.2496 70.1845 35.0702C70.1844 33.8907 69.716 32.7596 68.8822 31.9255Z" fill="#F34F29"/>
</g>
<defs>
<clipPath id="clip0_24_80">
<rect width="70" height="70" fill="white" transform="translate(0.666504)"/>
</clipPath>
</defs>
</svg>
