<svg width="90" height="90" viewBox="0 0 90 90" fill="none" xmlns="http://www.w3.org/2000/svg">
<path d="M72 12H18C14.685 12 12 14.685 12 18V72C12 75.315 14.685 78 18 78H72C75.315 78 78 75.315 78 72V18C78 14.685 75.315 12 72 12ZM45 61.14C45 66.471 41.73 69.459 36.3 69.459C30.936 69.459 27.519 66.324 27.519 61.254H33.33C33.345 63.135 34.467 64.323 36.201 64.323C37.983 64.323 38.94 63.201 38.94 61.089V44.994H45V61.14ZM61.443 69.459C55.416 69.459 51.624 66.621 51.522 62.031H57.3C57.447 63.765 59.178 64.869 61.689 64.869C63.951 64.869 65.505 63.78 65.505 62.211C65.505 60.891 64.464 60.18 61.74 59.637L58.605 59.01C54.246 58.185 52.002 55.809 52.002 52.062C52.002 47.406 55.734 44.352 61.476 44.352C67.056 44.352 70.917 47.373 71.016 51.78H65.421C65.289 50.097 63.687 48.924 61.554 48.924C59.427 48.924 58.026 49.932 58.026 51.516C58.026 52.821 59.082 53.58 61.59 54.075L64.656 54.669C69.363 55.578 71.475 57.705 71.475 61.485C71.478 66.456 67.683 69.459 61.443 69.459Z" fill="#F7DF1E"/>
</svg>
