<svg width="70" height="70" viewBox="0 0 70 70" fill="none" xmlns="http://www.w3.org/2000/svg">
<path d="M29.3125 23.625L29.4583 26.9792L27.125 31.3542L23.4792 38.5L22.75 44.4792L25.375 52.9375L31.3542 56.2917H40.3958L48.8542 49.875L52.6458 39.8125L43.8958 29.1667L41.4167 23.1875L29.3125 23.625Z" fill="#ECEFF1"/>
<path d="M50.0206 31.9375C47.6873 28.5833 45.7914 26.5417 44.7706 22.3125C43.7498 18.0833 45.0623 19.25 44.1873 15.6042C43.7498 13.7083 43.0206 12.3958 42.2914 11.375C41.4164 10.3542 40.3956 9.77085 39.8123 9.62501C38.4998 8.89585 35.4373 7.72918 31.6456 9.77085C27.7081 11.8125 28.1456 16.1875 28.8748 25.0833C28.8748 25.6667 28.7289 26.3958 28.4373 26.9792C27.8539 28.2917 26.8331 29.4583 25.9581 30.4792C24.9373 31.9375 23.9164 33.3958 23.1873 35C21.4373 38.3542 19.8331 42.5833 20.2706 44.1875C20.9998 44.0417 30.1873 58.0417 30.1873 58.3333C30.7706 58.1875 33.2498 58.1875 35.4373 58.1875C38.4998 58.0417 40.2498 57.8958 42.7289 58.4792C42.7289 58.0417 42.5831 57.6042 42.5831 57.1667C42.5831 56.2917 42.7289 55.5625 42.8748 54.5417C43.0206 53.8125 43.1664 53.0833 43.3123 52.2083C41.8539 53.5208 39.2289 54.9792 36.7498 55.4167C34.5623 55.8542 30.9164 55.125 29.1664 52.9375C29.3123 52.9375 29.6039 52.9375 29.7498 52.7917C30.1873 52.6459 30.6248 52.5 30.7706 52.2083C31.2081 51.4792 30.9164 50.75 30.6248 50.3125C30.3331 49.875 28.1456 48.2708 27.1248 47.3958C26.1039 46.5208 25.5206 46.0834 24.9373 45.5L23.7706 44.3333C23.4789 44.0417 23.3331 43.75 23.1873 43.6042C22.8956 42.875 22.7498 42 22.8956 40.8333C23.0414 39.2292 23.6248 37.9167 24.3539 36.4583C24.6456 35.875 25.3748 34.7083 25.3748 34.7083C25.3748 34.7083 22.8956 40.8333 24.2081 42.7292C24.2081 42.7292 24.3539 40.8334 24.9373 38.9375C25.3748 37.625 26.1039 35.7292 26.9789 34.7083C27.8539 33.6875 30.0414 29.8958 30.1873 27.5625C30.1873 26.5417 30.3331 25.5208 30.3331 24.7917C29.7498 24.2083 39.9581 22.75 40.5414 24.3542C40.6873 24.9375 42.7289 30.1875 43.8956 32.9583C44.4789 34.2708 45.2081 35.4375 45.6456 36.8958C46.0831 38.5 46.3748 40.6875 46.3748 42.875C46.3748 43.3125 46.3748 44.0417 46.2289 44.7709C46.5206 44.7709 52.2081 38.6458 45.4998 33.5417C45.4998 33.5417 49.5831 35.4375 49.7289 39.2292C49.8748 42.2917 48.5623 44.7708 48.2706 45.2083C48.4164 45.2083 51.3331 46.5208 51.4789 46.5208C52.0623 46.5208 53.2289 46.0833 53.2289 46.0833C53.3748 45.6458 53.8123 44.4792 53.8123 44.0417C54.8331 40.6875 52.3539 35.2917 50.0206 31.9375Z" fill="#263238"/>
<path d="M31.4998 22.3125C32.5469 22.3125 33.3957 21.0067 33.3957 19.3959C33.3957 17.785 32.5469 16.4792 31.4998 16.4792C30.4528 16.4792 29.604 17.785 29.604 19.3959C29.604 21.0067 30.4528 22.3125 31.4998 22.3125Z" fill="#ECEFF1"/>
<path d="M38.0622 22.6042C39.4314 22.6042 40.5413 21.1025 40.5413 19.25C40.5413 17.3976 39.4314 15.8958 38.0622 15.8958C36.693 15.8958 35.583 17.3976 35.583 19.25C35.583 21.1025 36.693 22.6042 38.0622 22.6042Z" fill="#ECEFF1"/>
<path d="M32.56 19.5951C32.4388 18.6363 31.8871 17.9163 31.3278 17.987C30.7684 18.0577 30.4133 18.8923 30.5345 19.8512C30.6557 20.81 31.2073 21.53 31.7667 21.4593C32.326 21.3886 32.6812 20.554 32.56 19.5951Z" fill="#212121"/>
<path d="M37.9163 21.7292C38.7218 21.7292 39.3747 20.8804 39.3747 19.8333C39.3747 18.7863 38.7218 17.9375 37.9163 17.9375C37.1109 17.9375 36.458 18.7863 36.458 19.8333C36.458 20.8804 37.1109 21.7292 37.9163 21.7292Z" fill="#212121"/>
<path d="M57.3124 51.9167C56.7291 51.625 55.7083 51.1875 54.8333 49.875C54.3958 49.1458 54.5416 47.1042 53.8124 46.2292C53.3749 45.6458 52.7916 45.9375 52.6458 45.9375C51.3333 46.2292 48.2708 48.2708 46.2291 45.9375C45.9374 45.6458 45.4999 45.2083 44.7708 45.2083C44.0416 45.2083 43.7499 45.5 43.4583 46.0833C43.1666 46.6667 43.1666 47.1042 43.1666 48.5625C43.1666 49.7292 43.1666 51.0417 43.0208 52.0625C42.7291 54.5417 42.2916 56 42.2916 57.4583C42.2916 59.0625 42.7291 60.0833 43.3124 60.5208C43.7499 60.9583 44.4791 61.25 46.0833 61.25C47.6874 61.25 48.7083 60.6667 49.7291 59.6458C50.4583 58.9167 51.0416 58.625 53.0833 57.1667C54.6874 56.1458 57.1666 54.8333 57.6041 54.3958C57.8958 54.1042 58.3333 53.9583 58.3333 53.0833C58.3333 52.3542 57.7499 52.0625 57.3124 51.9167ZM27.9999 52.3542C26.5416 50.0208 26.3958 49.5833 25.3749 48.125C24.4999 46.6667 22.6041 43.8958 21.4374 43.8958C20.5624 43.8958 20.1249 44.3333 19.5416 44.9167C18.9583 45.5 18.3749 46.8125 17.3541 47.5417C16.4791 48.2708 13.9999 48.125 13.4166 49C12.8333 49.875 13.9999 51.1875 13.9999 53.375C13.9999 54.25 13.2708 54.8333 13.1249 55.4167C12.9791 56.1458 12.8333 56.5833 13.1249 57.1667C13.7083 58.0417 14.4374 58.3333 19.3958 59.3542C22.0208 59.9375 24.4999 61.3958 26.1041 61.5417C27.7083 61.6875 30.4791 61.5417 30.4791 57.6042C30.6249 55.2708 29.3124 54.6875 27.9999 52.3542ZM30.7708 25.9583C29.8958 25.375 29.1666 24.7917 29.1666 23.9167C29.1666 23.0417 29.7499 22.75 30.6249 22.0208C30.7708 21.875 32.3749 20.4167 33.9791 20.4167C35.5833 20.4167 37.4791 21.4375 38.2083 21.7292C39.5208 22.0208 40.8333 22.3125 40.6874 23.3333C40.5416 24.7917 40.3958 25.0833 38.9374 25.8125C37.9166 26.1042 36.0208 27.7083 34.7083 27.7083C34.1249 27.7083 33.2499 27.7083 32.6666 27.5625C32.2291 27.4167 31.4999 26.6875 30.7708 25.9583Z" fill="#FFC107"/>
<path d="M30.4793 24.7917C30.771 25.0833 31.2085 25.375 31.646 25.5208C31.9376 25.6667 32.3751 25.8125 32.3751 25.8125H33.6876C34.4168 25.8125 35.4376 25.5208 36.4585 24.9375C37.4793 24.5 37.6251 24.2083 38.3543 23.9167C39.0835 23.4792 39.8126 23.0417 39.521 22.8958C39.2293 22.75 38.9376 22.8958 37.9168 23.4792C37.0418 24.0625 36.3126 24.3542 35.4376 24.7917C35.0001 24.9375 34.4168 25.2292 33.9793 25.2292H32.6668C32.2293 25.2292 31.9376 25.0833 31.5001 24.9375C31.2085 24.7917 31.0626 24.6458 30.9168 24.6458C30.6251 24.5 30.0418 23.9167 29.7501 23.7708C29.7501 23.7708 29.4585 23.7708 29.6043 23.9167L30.4793 24.7917ZM34.8543 21.5833C35.0001 21.875 35.2918 21.875 35.4376 22.0208C35.5835 22.1667 35.7293 22.1667 35.7293 22.1667C35.8751 22.0208 35.7293 21.7292 35.5835 21.7292C35.5835 21.4375 34.8543 21.4375 34.8543 21.5833ZM32.521 21.875C32.521 22.0208 32.8126 22.1667 32.8126 22.0208C32.9585 21.875 33.1043 21.7292 33.2501 21.7292C33.5418 21.5833 33.396 21.4375 32.9585 21.4375C32.6668 21.5833 32.6668 21.7292 32.521 21.875Z" fill="#634703"/>
<path d="M46.6668 47.6875V48.125C46.9585 48.7083 47.6877 48.8541 48.271 48.8541C49.146 48.8541 50.021 48.2708 50.4585 47.6875C50.4585 47.5416 50.6043 47.3958 50.7502 47.25C51.0418 46.8125 51.1877 46.5208 51.3335 46.375C51.3335 46.375 51.1877 46.2291 51.1877 46.0833C51.0418 45.7916 50.6043 45.5 50.021 45.3541C49.5835 45.2083 48.8543 45.0625 48.5627 45.0625C47.2502 44.9166 46.521 45.3541 46.0835 45.7916C46.0835 45.7916 46.2293 45.7916 46.2293 45.9375C46.521 46.2291 46.6668 46.5208 46.6668 46.9583C46.8127 47.25 46.6668 47.3958 46.6668 47.6875Z" fill="#455A64"/>
</svg>
