<svg width="63" height="70" viewBox="0 0 63 70" fill="none" xmlns="http://www.w3.org/2000/svg">
<g clip-path="url(#clip0_24_84)">
<path d="M31.0035 69.8702C30.0407 69.8702 29.142 69.6134 28.3076 69.1641L19.7703 64.0931C18.4865 63.3871 19.1284 63.1303 19.5135 63.0019C21.2466 62.4243 21.5675 62.2959 23.3647 61.2686C23.5575 61.1403 23.8143 61.2045 24.0066 61.3328L30.5542 65.2485C30.8109 65.3768 31.1318 65.3768 31.3244 65.2485L56.9362 50.4208C57.1929 50.2925 57.3213 50.0357 57.3213 49.7148V20.1232C57.3213 19.8022 57.1929 19.5455 56.9362 19.4171L31.3244 4.65343C31.0676 4.52505 30.7467 4.52505 30.5542 4.65343L4.94239 19.4174C4.68564 19.5457 4.55727 19.8667 4.55727 20.1234V49.7148C4.55727 49.9715 4.68564 50.2925 4.94239 50.4208L11.9392 54.4646C15.7265 56.3902 18.1012 54.1437 18.1012 51.8971V22.6907C18.1012 22.3055 18.4224 21.9204 18.8717 21.9204H22.1454C22.5306 21.9204 22.9157 22.2413 22.9157 22.6907V51.8969C22.9157 56.9679 20.1554 59.9205 15.3411 59.9205C13.8648 59.9205 12.7095 59.9205 9.43595 58.3158L2.69585 54.4646C1.02699 53.5016 0 51.7043 0 49.7787V20.1876C0 18.262 1.02699 16.4648 2.69585 15.5017L28.3076 0.674084C29.9123 -0.224532 32.0946 -0.224532 33.6993 0.674084L59.3111 15.5017C60.9799 16.4645 62.0069 18.2618 62.0069 20.1876V49.779C62.0069 51.7046 60.9799 53.5018 59.3111 54.4646L33.6993 69.2927C32.8649 69.6778 31.9021 69.8704 31.0035 69.8704V69.8702ZM38.8987 49.522C27.6655 49.522 25.3548 44.387 25.3548 40.0221C25.3548 39.637 25.6757 39.2518 26.125 39.2518H29.4627C29.8479 39.2518 30.169 39.5086 30.169 39.8937C30.6825 43.2956 32.1588 44.9647 38.9629 44.9647C44.3548 44.9647 46.6658 43.7452 46.6658 40.8567C46.6658 39.1876 46.0239 37.9681 37.6149 37.1334C30.6183 36.4274 26.2534 34.8869 26.2534 29.3026C26.2534 24.103 30.6181 21.022 37.9359 21.022C46.152 21.022 50.1961 23.8463 50.7095 30.0084C50.7095 30.201 50.6454 30.3936 50.517 30.5861C50.3886 30.7145 50.1961 30.8429 50.0035 30.8429H46.6658C46.3446 30.8429 46.0239 30.5861 45.9595 30.2652C45.1892 26.7349 43.1994 25.5795 37.9359 25.5795C32.0307 25.5795 31.3244 27.6335 31.3244 29.174C31.3244 31.0357 32.1588 31.6131 40.1182 32.6401C48.0137 33.6671 51.7365 35.1436 51.7365 40.6639C51.6724 46.3126 47.0509 49.522 38.8987 49.522Z" fill="#539E43"/>
</g>
<defs>
<clipPath id="clip0_24_84">
<rect width="62.0069" height="70" fill="white"/>
</clipPath>
</defs>
</svg>
