<svg width="70" height="70" viewBox="0 0 70 70" fill="none" xmlns="http://www.w3.org/2000/svg">
<path d="M34.9999 5.83331C31.1697 5.83331 27.377 6.58773 23.8383 8.05349C20.2996 9.51925 17.0843 11.6677 14.376 14.376C8.90616 19.8458 5.83325 27.2645 5.83325 35C5.83325 47.8916 14.2041 58.8291 25.7832 62.7083C27.2416 62.9416 27.7082 62.0375 27.7082 61.25V56.3208C19.6291 58.0708 17.9082 52.4125 17.9082 52.4125C16.5666 49.0291 14.6707 48.125 14.6707 48.125C12.0166 46.3166 14.8749 46.375 14.8749 46.375C17.7916 46.5791 19.3374 49.3791 19.3374 49.3791C21.8749 53.8125 26.1624 52.5 27.8249 51.8C28.0874 49.9041 28.8457 48.6208 29.6624 47.8916C23.1874 47.1625 16.3916 44.6541 16.3916 33.5416C16.3916 30.3041 17.4999 27.7083 19.3957 25.6375C19.1041 24.9083 18.0832 21.875 19.6874 17.9375C19.6874 17.9375 22.1374 17.15 27.7082 20.9125C30.0124 20.2708 32.5207 19.95 34.9999 19.95C37.4791 19.95 39.9874 20.2708 42.2916 20.9125C47.8624 17.15 50.3124 17.9375 50.3124 17.9375C51.9166 21.875 50.8957 24.9083 50.6041 25.6375C52.4999 27.7083 53.6082 30.3041 53.6082 33.5416C53.6082 44.6833 46.7832 47.1333 40.2791 47.8625C41.3291 48.7666 42.2916 50.5458 42.2916 53.2583V61.25C42.2916 62.0375 42.7582 62.9708 44.2457 62.7083C55.8249 58.8 64.1665 47.8916 64.1665 35C64.1665 31.1697 63.4121 27.377 61.9464 23.8384C60.4806 20.2997 58.3322 17.0844 55.6238 14.376C52.9155 11.6677 49.7002 9.51925 46.1615 8.05349C42.6228 6.58773 38.8301 5.83331 34.9999 5.83331Z" fill="black"/>
</svg>
