<svg width="71" height="70" viewBox="0 0 71 70" fill="none" xmlns="http://www.w3.org/2000/svg">
<g clip-path="url(#clip0_24_86)">
<path d="M41.6863 0C41.1782 0 40.7063 0.10898 40.2707 0.254196C41.1963 0.87102 41.7045 1.68769 41.9584 2.61333C41.9768 2.74043 42.013 2.83129 42.0311 2.95812C42.0492 3.0671 42.0674 3.17608 42.0674 3.28478C42.1401 4.88188 41.6501 5.08145 41.305 6.02522C40.7788 7.24129 40.924 8.54796 41.5592 9.60043C41.6136 9.72753 41.6863 9.87274 41.7769 9.99984C41.0874 5.40812 44.9168 4.71855 45.6245 3.28478C45.6788 2.03274 44.6445 1.19769 43.8278 0.617098C43.0474 0.144941 42.3397 0 41.6863 0ZM47.4574 1.03435C47.3849 1.45188 47.4392 1.3429 47.4211 1.56086C47.403 1.70608 47.403 1.88753 47.3849 2.03275C47.3487 2.17769 47.3124 2.3229 47.2578 2.46812C47.2216 2.61361 47.1672 2.75855 47.1129 2.90376C47.0401 3.04898 46.9858 3.17608 46.913 3.32102C46.8587 3.39376 46.8224 3.46651 46.7678 3.53898L46.6591 3.70231C46.5685 3.82941 46.4776 3.95651 46.3868 4.06522C46.2778 4.1742 46.1872 4.30129 46.0601 4.39188V4.41C45.9511 4.50086 45.8424 4.60984 45.7153 4.70043C45.3343 4.99086 44.8987 5.20855 44.4992 5.48086C44.3724 5.57145 44.2453 5.6442 44.1363 5.75318C44.0092 5.84376 43.9003 5.93435 43.7916 6.04361C43.6645 6.15231 43.5739 6.26129 43.4649 6.38839C43.3743 6.4971 43.2653 6.62447 43.1926 6.75129C43.102 6.87839 43.0114 7.00522 42.9387 7.13231C42.8659 7.2778 42.8116 7.40463 42.7388 7.54957C42.6845 7.69506 42.6301 7.82216 42.5939 7.9671C42.5392 8.13043 42.503 8.27565 42.4668 8.42086C42.4487 8.49361 42.4487 8.5842 42.4305 8.65694C42.4121 8.72941 42.4121 8.80216 42.3943 8.87463C42.3943 9.01984 42.3759 9.18318 42.3759 9.32839C42.3759 9.43737 42.3759 9.54608 42.3943 9.65506C42.3943 9.80027 42.4124 9.94549 42.4487 10.1088C42.4668 10.254 42.503 10.399 42.5392 10.5442C42.5939 10.6897 42.6301 10.8346 42.6847 10.9798C42.7207 11.0704 42.7753 11.1613 42.8116 11.234L38.6376 9.61882C37.9404 9.4203 37.2385 9.2387 36.5324 9.0742L35.3891 8.80216C34.3001 8.5842 33.193 8.42086 32.0862 8.31216C32.0499 8.31216 32.0316 8.29376 31.9956 8.29376C30.9161 8.18504 29.8318 8.13053 28.7468 8.13043C27.9482 8.13043 27.1497 8.16667 26.3695 8.22102C25.2621 8.29376 24.1553 8.43898 23.0479 8.62043C22.7759 8.65694 22.5036 8.71129 22.2316 8.76592C21.6688 8.87463 21.1245 9.00173 20.5982 9.12882L19.7813 9.34651C19.5092 9.45549 19.255 9.58259 19.0011 9.69129L18.4021 9.96361C18.3659 9.98173 18.3294 9.98173 18.3116 9.99984C18.1298 10.0904 17.9665 10.1632 17.8032 10.2538C17.7594 10.2686 17.7169 10.2869 17.6761 10.3084C17.4765 10.399 17.2769 10.508 17.1136 10.5988C16.9865 10.6532 16.8594 10.7256 16.7507 10.78C16.698 10.8134 16.6435 10.8437 16.5874 10.8709C16.424 10.9615 16.2607 11.0523 16.1152 11.1432C15.9651 11.2257 15.8197 11.3166 15.6798 11.4155C15.5527 11.5061 15.4259 11.5788 15.3169 11.6694C15.2988 11.6875 15.2807 11.6875 15.2623 11.7056C15.1536 11.7784 15.0265 11.869 14.9175 11.9598L14.8813 11.9961L14.6092 12.2138C14.5727 12.2322 14.5365 12.2684 14.5003 12.2865C14.4097 12.359 14.3188 12.4498 14.2279 12.5226C14.2098 12.5585 14.1736 12.5769 14.1555 12.5951C14.0465 12.704 13.9375 12.7946 13.8288 12.9036C13.8104 12.9036 13.8104 12.9217 13.7926 12.9398C13.6836 13.0304 13.5746 13.1394 13.4659 13.2484C13.4475 13.2665 13.4475 13.2846 13.4294 13.2846C13.3388 13.3752 13.2482 13.4661 13.1574 13.5751C13.1211 13.6113 13.0668 13.6475 13.0303 13.6838C12.9397 13.7927 12.8307 13.9017 12.7217 14.0104C12.7036 14.0469 12.6674 14.0651 12.649 14.1013C12.504 14.2465 12.3769 14.3917 12.2317 14.5369L12.1774 14.5913C11.8869 14.8998 11.5784 15.2084 11.2517 15.4807C10.9299 15.7679 10.5904 16.0346 10.2352 16.2793C9.8833 16.526 9.52 16.7561 9.1465 16.9688C8.7761 17.172 8.39436 17.3537 8.00317 17.5132C7.6171 17.6772 7.22336 17.8226 6.82332 17.9488C6.06128 18.1122 5.28058 18.4207 4.6094 18.4751C4.46391 18.4751 4.30085 18.5113 4.15564 18.5294C4.00392 18.5638 3.85266 18.6001 3.70187 18.6384L3.26622 18.8017C3.12101 18.8561 2.97607 18.9288 2.83085 19.0013C2.70375 19.0919 2.55854 19.1646 2.43144 19.2555C2.30434 19.3461 2.17752 19.4551 2.06854 19.564C1.94144 19.6546 1.81434 19.7817 1.70563 19.8907C1.59665 20.0178 1.48767 20.1268 1.39709 20.2536C1.3065 20.3988 1.19752 20.5259 1.12477 20.6709C1.03418 20.7982 0.943321 20.9432 0.870576 21.0884C0.798106 21.2517 0.725635 21.3969 0.671007 21.5605C0.613762 21.7168 0.559309 21.874 0.507674 22.0322C0.471439 22.1774 0.435204 22.3226 0.417086 22.4678C0.417086 22.4859 0.398694 22.504 0.398694 22.5222C0.362458 22.6855 0.362458 22.9035 0.344341 23.0122C0.326223 23.1393 0.308105 23.2482 0.308105 23.3751C0.308105 23.4478 0.308105 23.5384 0.326223 23.6111C0.344341 23.7382 0.362458 23.8472 0.398968 23.9559C0.435204 24.0649 0.471439 24.1736 0.526066 24.2826V24.3007C0.580419 24.4097 0.65289 24.5187 0.725635 24.6274C0.798105 24.7364 0.870851 24.8453 0.961713 24.954C1.0523 25.0446 1.16101 25.1539 1.26999 25.2445C1.37897 25.3534 1.48795 25.444 1.61477 25.5349C2.05042 25.9159 2.1594 26.043 2.72187 26.3335C2.81246 26.3878 2.90332 26.424 3.0123 26.4787C3.03042 26.4787 3.04854 26.4968 3.06665 26.4968C3.06665 26.533 3.06665 26.5511 3.08505 26.5874C3.10316 26.7329 3.1394 26.8778 3.17563 27.023C3.21187 27.1864 3.26622 27.3316 3.32085 27.4587C3.3752 27.5676 3.41144 27.6764 3.46607 27.7853C3.48418 27.8216 3.5023 27.8581 3.52042 27.8759C3.59316 28.0214 3.66591 28.1482 3.73838 28.2753L4.01042 28.6564C4.10101 28.7653 4.20999 28.8924 4.31897 29.0014C4.42795 29.1101 4.53693 29.201 4.66375 29.3097C4.66375 29.3097 4.68214 29.3281 4.69999 29.3281C4.80897 29.4187 4.91795 29.5093 5.02666 29.582C5.15375 29.6726 5.28085 29.7453 5.42607 29.8181C5.55316 29.8905 5.69838 29.9633 5.84332 30.0176C5.9523 30.072 6.0794 30.1082 6.2065 30.1447C6.22462 30.1629 6.24273 30.1629 6.27897 30.181C6.35171 30.1991 6.4423 30.2172 6.51505 30.2353C6.46042 31.2153 6.4423 32.141 6.58752 32.4676C6.75085 32.8305 7.5494 31.7237 8.34795 30.4533C8.23924 31.7053 8.16677 33.1753 8.34795 33.611C8.54752 34.0647 9.6365 32.6491 10.5803 31.0882C23.4476 28.112 35.1895 37.0047 36.4237 49.5636C36.1876 47.6036 33.7741 46.5146 32.667 46.7869C32.1224 48.1298 31.197 49.854 29.7089 50.9246C29.8358 49.7269 29.7814 48.4927 29.5272 47.295C29.1281 48.9646 28.3476 50.5254 27.2768 51.8684C25.5529 51.9954 23.8289 51.1607 22.9211 49.9084C22.8487 49.854 22.8305 49.745 22.7762 49.6723C22.7216 49.5454 22.6672 49.4184 22.6307 49.2913C22.5778 49.1696 22.5413 49.0415 22.522 48.9102C22.5039 48.7831 22.5039 48.656 22.5039 48.5108V48.2388C22.522 48.1117 22.5582 47.9846 22.5945 47.8575C22.6307 47.7307 22.6672 47.6036 22.7216 47.4765C22.7943 47.3494 22.8487 47.2223 22.9392 47.0954C23.2478 46.2242 23.2478 45.5165 22.6853 45.0989C22.5764 45.0278 22.4609 44.9672 22.3405 44.9178C22.2678 44.8994 22.1772 44.8629 22.1045 44.845C22.0501 44.8266 22.0139 44.8085 21.9592 44.7904C21.8324 44.7542 21.7053 44.7179 21.5782 44.6998C21.4544 44.6639 21.3261 44.6455 21.1972 44.6452C21.0701 44.6271 20.9249 44.6089 20.7978 44.6089C20.7072 44.6089 20.6166 44.6271 20.5255 44.6271C20.3805 44.6271 20.2534 44.6454 20.1263 44.6817C19.9992 44.6998 19.8721 44.7179 19.7453 44.7542C19.6182 44.7904 19.4911 44.8269 19.364 44.8813C19.2372 44.9356 19.128 44.9902 19.0011 45.0446C18.8921 45.0989 18.7834 45.1717 18.6563 45.226C14.4278 47.9849 16.9503 54.4454 19.8359 56.3149C18.7469 56.5144 17.6398 56.7505 17.3316 56.9863L17.2953 57.0225C18.0755 57.4947 18.8921 57.8938 19.7453 58.2386C20.9068 58.6196 22.141 58.9644 22.6853 59.1096V59.1278C24.1889 59.4361 25.7265 59.5459 27.2587 59.4544C35.2985 58.8917 41.8865 52.7759 43.0841 44.7179C43.1204 44.8813 43.1569 45.0265 43.1931 45.1898C43.2475 45.5165 43.3202 45.8613 43.3565 46.206V46.2244C43.3927 46.3878 43.4108 46.5511 43.4292 46.6963V46.7688C43.4473 46.9321 43.4654 47.0954 43.4654 47.2407C43.4836 47.4402 43.5017 47.6398 43.5017 47.8396V48.1298C43.5017 48.2207 43.5198 48.3296 43.5198 48.4202C43.5198 48.5292 43.5017 48.6382 43.5017 48.7469V49.0011C43.5017 49.1282 43.4836 49.2372 43.4836 49.364C43.4836 49.4367 43.4836 49.5092 43.4652 49.6001C43.4652 49.7269 43.447 49.854 43.447 49.9992C43.4289 50.0536 43.4289 50.1082 43.4289 50.1625C43.4108 50.3078 43.3927 50.4349 43.3743 50.5798C43.3743 50.6344 43.3743 50.6888 43.3562 50.7434C43.3381 50.9246 43.3018 51.0882 43.2837 51.2696V51.3059C43.2475 51.4692 43.211 51.6509 43.1747 51.8143V51.8686L43.0658 52.3586C43.0658 52.3767 43.0476 52.413 43.0476 52.4311C43.0114 52.5944 42.9752 52.7578 42.9205 52.9214V52.9757C42.8662 53.1572 42.8118 53.3205 42.7756 53.4838C42.7572 53.502 42.7572 53.5201 42.7572 53.5201L42.5939 54.0644C42.5214 54.2462 42.467 54.4095 42.3943 54.5909C42.3218 54.7721 42.2672 54.9538 42.1947 55.1172C42.122 55.2986 42.0492 55.462 41.977 55.6434H41.9587C41.8862 55.8067 41.8134 55.9882 41.7226 56.1515C41.7078 56.1952 41.6896 56.2377 41.6682 56.2786C41.6501 56.297 41.6501 56.3149 41.632 56.3333C40.4524 58.7105 38.7101 60.7976 36.5324 62.4309C36.3869 62.5215 36.242 62.6308 36.0968 62.7395C36.0605 62.7757 36.0062 62.7941 35.9697 62.8301C35.8426 62.9209 35.7158 63.0118 35.5705 63.1024L35.6249 63.2114H35.643L36.4053 63.1024H36.4234C36.8956 63.0299 37.3672 62.9391 37.8391 62.8485C37.9662 62.8303 38.1114 62.7941 38.2382 62.7579C38.3291 62.7395 38.4016 62.7214 38.4924 62.7033C38.6195 62.6851 38.7466 62.6489 38.8734 62.6305C38.9824 62.5943 39.0914 62.5762 39.2001 62.5399C41.0152 62.1043 42.7756 61.5053 44.4633 60.7976C41.5776 64.7357 37.712 67.9118 33.193 69.9989C35.2801 69.8537 37.3672 69.5089 39.3818 68.9283C46.6956 66.7685 52.8479 61.8503 56.5321 55.2262C55.7842 59.4281 54.1171 63.4129 51.6499 66.8956C53.4088 65.7354 55.0339 64.3841 56.4956 62.8666C60.5611 58.6199 63.2288 53.2296 64.1363 47.4402C64.7554 50.3125 64.9328 53.2623 64.6625 56.188C77.7657 37.9123 65.7515 18.9653 60.7244 13.9745C60.706 13.9382 60.6882 13.9201 60.6882 13.8839C60.6698 13.902 60.6698 13.902 60.6698 13.9201C60.6698 13.9017 60.6698 13.9017 60.6517 13.8839C60.6517 14.1016 60.6336 14.3193 60.6154 14.5372C60.5611 14.9545 60.5065 15.3539 60.434 15.7533C60.3434 16.1524 60.2344 16.5516 60.1254 16.951C59.9962 17.3438 59.8509 17.7312 59.6898 18.1122C59.523 18.4883 59.3414 18.8577 59.1454 19.2195C58.9459 19.5643 58.7282 19.9272 58.4921 20.2539C58.2588 20.5914 58.0105 20.9184 57.7482 21.2339C57.4756 21.5605 57.1854 21.851 56.895 22.1414C56.7241 22.2978 56.5486 22.449 56.3688 22.5949C56.2233 22.722 56.0965 22.831 55.9512 22.9581C55.6246 23.212 55.2979 23.4481 54.935 23.6658C54.5902 23.8834 54.227 24.1014 53.8644 24.2829C53.4828 24.4643 53.1018 24.6276 52.7208 24.791C52.334 24.937 51.9404 25.0641 51.5412 25.172C51.1399 25.28 50.7342 25.3709 50.3252 25.4443C49.9079 25.5171 49.4907 25.5533 49.0912 25.5895C48.8008 25.6076 48.5104 25.6258 48.2199 25.6258C47.8027 25.6258 47.3852 25.5895 46.986 25.5533C46.5685 25.5168 46.151 25.4624 45.7518 25.3716C45.3346 25.2991 44.9352 25.1904 44.5358 25.0633H44.5176C44.917 25.0268 45.3165 24.9905 45.7156 24.9178C46.125 24.8464 46.5308 24.7556 46.9317 24.6458C47.3307 24.5379 47.7243 24.4107 48.111 24.2647C48.5104 24.1193 48.8914 23.9381 49.2546 23.7564C49.6356 23.5752 49.9804 23.3753 50.3433 23.1576C50.6881 22.9216 51.0331 22.6855 51.3598 22.4316C51.6849 22.1788 51.9939 21.9061 52.2852 21.6149C52.5937 21.3426 52.866 21.0343 53.1383 20.7255C53.4036 20.4077 53.6578 20.0809 53.9004 19.7455C53.9366 19.6911 53.9731 19.6187 54.0094 19.5643C54.1908 19.2739 54.3723 18.9834 54.5356 18.693C54.7352 18.3332 54.917 17.9637 55.0802 17.5859C55.2441 17.2062 55.3894 16.8187 55.5156 16.4247C55.6427 16.0432 55.7336 15.644 55.8241 15.2449C55.8969 14.8276 55.9696 14.4282 56.0056 14.0288C56.0418 13.6116 56.0783 13.1943 56.0783 12.7949C56.0783 12.5045 56.0602 12.214 56.0421 11.9236C56.0059 11.5064 55.9515 11.1069 55.8966 10.7075C55.8253 10.2982 55.7346 9.89247 55.6249 9.49172C55.4975 9.11071 55.3707 8.71129 55.2254 8.33027C55.08 7.94925 54.8988 7.56796 54.7173 7.20506C54.5175 6.84216 54.3179 6.47898 54.1002 6.13447C53.8685 5.79429 53.6264 5.46134 53.3741 5.13608C53.1009 4.82303 52.8226 4.51444 52.5394 4.21043C52.3865 4.05476 52.2291 3.90354 52.0675 3.75694C51.2544 3.12545 50.4126 2.53188 49.5447 1.97812C49.4275 1.91051 49.3063 1.85001 49.1818 1.79694C48.5831 1.41565 48.0207 1.21608 47.4579 1.03463L47.4574 1.03435Z" fill="#E0234E"/>
</g>
<defs>
<clipPath id="clip0_24_86">
<rect width="70.2745" height="70" fill="white" transform="translate(0.307617)"/>
</clipPath>
</defs>
</svg>
