<svg width="90" height="90" viewBox="0 0 90 90" fill="none" xmlns="http://www.w3.org/2000/svg">
<path d="M32.4259 12.5449C30.5621 12.5449 28.8335 12.9622 27.3022 13.8437C22.5166 16.6067 20.695 23.3399 21.6602 31.7229C13.9193 35.0786 9 40.0197 9 45.5449C9 51.0702 13.9193 56.0113 21.6602 59.3669C20.6955 67.7496 22.5166 74.4831 27.3022 77.2461C28.8305 78.1277 30.5591 78.5449 32.4259 78.5449C36.3994 78.5449 40.9918 76.5507 45.6044 73.1293C50.2175 76.5507 54.8155 78.5449 58.789 78.5449C60.6527 78.5449 62.3813 78.1277 63.9126 77.2461C68.6982 74.4832 70.5198 67.7499 69.5546 59.3669C77.2926 56.0113 82.2089 51.069 82.2089 45.5449C82.2089 40.0197 77.2896 35.0786 69.5487 31.7229C70.5134 23.3402 68.6923 16.6067 63.9067 13.8437C62.3784 12.9591 60.6498 12.5449 58.783 12.5449C54.8095 12.5449 50.2171 14.5392 45.6044 17.9605C40.9916 14.5392 36.398 12.5449 32.4259 12.5449ZM32.4259 17.8831C34.8102 17.8831 37.9631 19.1508 41.3864 21.4994C39.3737 23.3988 37.4025 25.5587 35.506 27.9636C32.4301 28.4046 29.5301 29.0476 26.8435 29.8522C26.829 29.6659 26.7949 29.4704 26.7839 29.2862C26.4575 23.8566 27.65 19.8091 29.9713 18.4669C30.6576 18.0704 31.4589 17.8831 32.4259 17.8831ZM58.783 17.8831C59.7469 17.8831 60.5513 18.0704 61.2376 18.4669C63.5589 19.806 64.7514 23.8566 64.425 29.2862C64.4139 29.4704 64.3799 29.6659 64.3654 29.8522C61.6771 29.0471 58.7749 28.4047 55.6969 27.9636C53.8005 25.559 51.8352 23.3986 49.8225 21.4994C53.2455 19.1512 56.4 17.8831 58.783 17.8831ZM45.6044 24.8894C46.4313 25.642 47.2525 26.4375 48.0829 27.3082C47.2599 27.2806 46.4414 27.2427 45.6044 27.2427C44.7695 27.2427 43.953 27.2807 43.132 27.3082C43.9617 26.4384 44.7783 25.6413 45.6044 24.8894ZM45.6044 32.5809C48.1322 32.5809 50.5281 32.7221 52.8014 32.9681C54.1878 34.8525 55.5541 36.8447 56.8348 39.0629C58.0624 41.1891 59.1479 43.3654 60.1056 45.5449C59.1478 47.7258 58.0631 49.9054 56.8348 52.0329C55.558 54.2447 54.1951 56.2241 52.8133 58.1039C50.4598 58.3614 48.0454 58.509 45.6044 58.509C43.0766 58.509 40.6808 58.3677 38.4075 58.1217C37.0211 56.2374 35.6548 54.2511 34.3741 52.0329C33.1458 49.9054 32.0614 47.7258 31.1033 45.5449C32.0607 43.3654 33.1465 41.1891 34.3741 39.0629C35.6513 36.8511 37.0134 34.8657 38.3956 32.986C40.7491 32.7285 43.1635 32.5809 45.6044 32.5809ZM60.0818 34.2311C61.292 34.5233 62.4555 34.8388 63.5492 35.1903C63.3014 36.31 62.9984 37.4511 62.6555 38.6041C62.263 37.8676 61.8824 37.1287 61.458 36.3938C61.0214 35.6379 60.5367 34.9588 60.0818 34.2311ZM31.1211 34.2371C30.6677 34.9625 30.186 35.6403 29.7509 36.3938C29.3267 37.1288 28.9458 37.8675 28.5534 38.6041C28.2097 37.4487 27.9018 36.3062 27.6537 35.1844C28.7675 34.8325 29.9281 34.5208 31.1211 34.2371ZM22.6313 37.1445C23.274 39.8582 24.1656 42.6712 25.3123 45.539C24.168 48.3999 23.2802 51.2078 22.6373 53.9156C17.3252 51.3504 14.3381 48.1572 14.3381 45.5449C14.3381 42.8636 17.2417 39.808 22.1071 37.3768C22.2731 37.2938 22.4617 37.2256 22.6313 37.1445ZM68.5716 37.1743C73.8837 39.7395 76.8707 42.9327 76.8707 45.5449C76.8707 48.2262 73.9672 51.2819 69.1018 53.713C68.9358 53.7961 68.7472 53.8642 68.5775 53.9454C67.9345 51.2301 67.0502 48.4144 65.9025 45.5449C67.0454 42.6865 67.9292 39.8798 68.5716 37.1743ZM45.6044 39.4442C42.2338 39.4442 39.5037 42.1743 39.5037 45.5449C39.5037 48.9156 42.2338 51.6457 45.6044 51.6457C48.9751 51.6457 51.7052 48.9156 51.7052 45.5449C51.7052 42.1743 48.9751 39.4442 45.6044 39.4442ZM28.5534 52.4857C28.946 53.2225 29.3323 53.9609 29.7568 54.696C30.1929 55.4514 30.6726 56.1316 31.1271 56.8587C29.9169 56.5665 28.7534 56.2511 27.6597 55.8995C27.9077 54.7792 28.2102 53.6395 28.5534 52.4857ZM62.6555 52.4917C62.9988 53.646 63.3073 54.7846 63.5552 55.9055C62.4414 56.2574 61.2808 56.569 60.0877 56.8527C60.5412 56.1273 61.0228 55.4495 61.458 54.696C61.8814 53.9626 62.2639 53.2268 62.6555 52.4917ZM26.8435 61.2376C29.5317 62.0428 32.434 62.6852 35.512 63.1263C37.409 65.532 39.3728 67.6965 41.3864 69.5964C37.9634 71.9443 34.81 73.2127 32.4259 73.2127C31.462 73.2127 30.6576 73.0195 29.9713 72.6229C27.65 71.2838 26.4575 67.2393 26.7839 61.8096C26.7951 61.6235 26.8288 61.4259 26.8435 61.2376ZM64.3654 61.2376C64.38 61.4259 64.4139 61.6235 64.425 61.8096C64.7514 67.2393 63.5589 71.2808 61.2376 72.6229C60.5513 73.0195 59.75 73.2127 58.783 73.2127C56.3989 73.2127 53.2455 71.9447 49.8225 69.5964C51.8362 67.6963 53.8055 65.5323 55.7028 63.1263C58.7788 62.6852 61.6788 62.0423 64.3654 61.2376ZM43.126 63.7816C43.949 63.8092 44.7675 63.8471 45.6044 63.8471C46.4414 63.8471 47.2599 63.8092 48.0829 63.7816C47.2525 64.6523 46.4313 65.4479 45.6044 66.2005C44.7775 65.4478 43.9564 64.6523 43.126 63.7816Z" fill="#149ECA"/>
</svg>
