<svg width="71" height="70" viewBox="0 0 71 70" fill="none" xmlns="http://www.w3.org/2000/svg">
<g clip-path="url(#clip0_24_115)">
<path d="M54.2607 0H17.0732C8.01232 0 0.666992 7.34533 0.666992 16.4062V53.5938C0.666992 62.6547 8.01232 70 17.0732 70H54.2607C63.3217 70 70.667 62.6547 70.667 53.5938V16.4062C70.667 7.34533 63.3217 0 54.2607 0Z" fill="#023430"/>
<path d="M47.4721 29.4194C44.5909 16.7098 38.5862 13.3262 37.0544 10.9345C36.4227 9.88085 35.8631 8.78559 35.3796 7.65625C35.2986 8.78555 35.1499 9.49648 34.1901 10.3529C32.2632 12.0709 24.0792 18.74 23.3904 33.1811C22.7487 46.6457 33.2889 54.9481 34.6812 55.8064C35.752 56.3333 37.056 55.8176 37.6923 55.3339C42.773 51.847 49.7151 42.5507 47.4775 29.4194" fill="#10AA50"/>
<path d="M35.816 48.6366C35.5508 51.9693 35.3608 53.9057 34.687 55.8102C34.687 55.8102 35.1292 58.9829 35.4398 62.3437H36.5387C36.8009 59.977 37.2011 57.6277 37.7375 55.3077C36.3148 54.6077 35.8707 51.561 35.816 48.6366Z" fill="#B8C4C2"/>
<path d="M37.7356 55.3096C36.2979 54.6454 35.882 51.5345 35.818 48.6366C36.1734 43.8561 36.2771 39.0602 36.1286 34.2688C36.0531 31.7548 36.1642 10.9834 35.5093 7.94226C35.9573 8.97226 36.4735 9.97125 37.0545 10.9326C38.5863 13.3262 44.5929 16.7098 47.4722 29.4194C49.7152 42.5283 42.8109 51.8 37.7356 55.3096Z" fill="#12924F"/>
</g>
<defs>
<clipPath id="clip0_24_115">
<rect width="70" height="70" fill="white" transform="translate(0.666992)"/>
</clipPath>
</defs>
</svg>
