<svg width="71" height="70" viewBox="0 0 71 70" fill="none" xmlns="http://www.w3.org/2000/svg">
<g clip-path="url(#clip0_24_108)">
<path d="M70.3294 34.9133C70.3294 54.1945 54.6983 69.8258 35.416 69.8258C16.1332 69.8258 0.502441 54.1945 0.502441 34.9133C0.502441 15.6311 16.1338 0 35.416 0C54.6986 0 70.3294 15.6311 70.3294 34.9133Z" fill="#DD4814"/>
<path d="M11.6758 30.2512C9.10027 30.2512 7.01367 32.3378 7.01367 34.9133C7.01367 37.4874 9.10027 39.5743 11.6758 39.5743C14.2502 39.5743 16.3368 37.4874 16.3368 34.9133C16.3368 32.3378 14.2502 30.2512 11.6758 30.2512ZM44.9572 51.4366C42.7279 52.7245 41.9631 55.5737 43.251 57.8019C44.5375 60.0316 47.3867 60.7958 49.6163 59.5082C51.8457 58.2217 52.6102 55.3724 51.3226 53.1426C50.0361 50.9146 47.1852 50.1503 44.9572 51.4366ZM21.8009 34.9133C21.8009 30.307 24.089 26.2371 27.5898 23.7729L24.182 18.0652C20.1039 20.7914 17.0693 24.9569 15.8082 29.8358C17.2799 31.0362 18.2216 32.8642 18.2216 34.913C18.2216 36.9608 17.2799 38.7887 15.8082 39.9894C17.0677 44.8694 20.1023 49.0355 24.182 51.7617L27.5898 46.0523C24.089 43.5895 21.8009 39.5199 21.8009 34.9133ZM35.4159 21.2969C42.5288 21.2969 48.3645 26.7504 48.977 33.7055L55.6188 33.6076C55.2923 28.473 53.0491 23.8634 49.6027 20.4739C47.8302 21.1435 45.7827 21.041 44.0136 20.0211C42.2409 18.9982 41.1294 17.2725 40.8256 15.3994C39.0636 14.9118 37.2438 14.6644 35.4156 14.6639C32.3027 14.6607 29.2313 15.3779 26.4417 16.7592L29.6805 22.5635C31.4769 21.7274 33.4345 21.2951 35.4159 21.2969ZM35.4159 48.5286C33.4346 48.5304 31.4771 48.098 29.6808 47.262L26.442 53.0657C29.2312 54.4486 32.3029 55.1666 35.4162 55.1633C37.2444 55.1628 39.0642 54.9148 40.8259 54.4258C41.1296 52.5528 42.2414 50.8287 44.0136 49.8042C45.7844 48.7823 47.8305 48.6817 49.6027 49.3514C53.0493 45.9618 55.2923 41.3522 55.6194 36.2176L48.9757 36.1197C48.3645 43.0768 42.5291 48.5286 35.4159 48.5286ZM44.9556 18.3873C47.1852 19.6746 50.0347 18.9123 51.3209 16.6827C52.6088 14.4531 51.8459 11.6036 49.6163 10.3157C47.3867 9.02944 44.5375 9.79342 43.2493 12.023C41.9634 14.2515 42.7276 17.1008 44.9556 18.3873Z" fill="white"/>
</g>
<defs>
<clipPath id="clip0_24_108">
<rect width="70" height="70" fill="white" transform="translate(0.428711)"/>
</clipPath>
</defs>
</svg>
